<svg width="36" height="36" viewBox="0 0 36 36" fill="none" xmlns="http://www.w3.org/2000/svg">
<g clip-path="url(#clip0_2_1031)">
<circle cx="17.6704" cy="18.2904" r="17.4302" fill="#FFAF63"/>
<path fill-rule="evenodd" clip-rule="evenodd" d="M11.8736 25.9603C11.0069 25.9603 10.1756 25.6154 9.56269 25.0016C8.94979 24.3877 8.60547 23.5551 8.60547 22.6869V19.4136L12.3584 15.6547C12.491 15.8782 12.6497 16.0852 12.8312 16.2711L13.8291 17.2706L10.7842 20.5047H14.0524V21.5958C14.0524 21.8852 14.1672 22.1627 14.3715 22.3674C14.5758 22.572 14.8529 22.6869 15.1418 22.6869H19.4993C20.1018 22.6869 20.5887 22.1992 20.5887 21.5958V20.5047H23.8569L20.812 17.2706L21.8099 16.2711C21.9914 16.0853 22.1505 15.8788 22.2838 15.6557L26.0356 19.4136V22.6869C26.0356 23.5551 25.6913 24.3877 25.0784 25.0016C24.4655 25.6154 23.6342 25.9603 22.7675 25.9603H11.8736ZM17.3206 17.2302C17.0417 17.2302 16.7628 17.1233 16.5504 16.9105L14.3716 14.7283C14.2196 14.5754 14.116 14.381 14.074 14.1694C14.0319 13.9578 14.0532 13.7385 14.1352 13.539C14.2178 13.3398 14.3576 13.1697 14.5367 13.05C14.7159 12.9304 14.9265 12.8666 15.1418 12.8668H16.2312V9.59346C16.2385 9.30896 16.3565 9.03857 16.56 8.83994C16.7635 8.64131 17.0364 8.53015 17.3206 8.53015C17.6047 8.53015 17.8776 8.64131 18.0811 8.83994C18.2846 9.03857 18.4026 9.30896 18.4099 9.59346V12.8668H19.4993C19.9394 12.8668 20.3382 13.1331 20.5059 13.5401C20.5882 13.7393 20.6096 13.9586 20.5675 14.1701C20.5254 14.3815 20.4217 14.5758 20.2695 14.7283L18.0907 16.9105C17.8783 17.1233 17.5994 17.2302 17.3206 17.2302Z" fill="white"/>
</g>
<defs>
<clipPath id="clip0_2_1031">
<rect width="34.8603" height="34.8603" fill="white" transform="translate(0.240234 0.860229)"/>
</clipPath>
</defs>
</svg>
