<svg width="28" height="28" viewBox="0 0 28 28" fill="none" xmlns="http://www.w3.org/2000/svg">
<g clip-path="url(#clip0_2_1101)">
<circle cx="14.1184" cy="14.1002" r="13.2454" fill="#07C5B9"/>
<mask id="mask0_2_1101" style="mask-type:alpha" maskUnits="userSpaceOnUse" x="7" y="7" width="14" height="15">
<rect x="7.05273" y="7.91834" width="13.2454" height="13.2454" fill="white"/>
</mask>
<g mask="url(#mask0_2_1101)">
<path d="M9.03922 9.24293H10.465C10.7887 9.24293 11.065 9.47698 11.1183 9.79632L11.6079 12.7341C11.6557 13.0208 11.5108 13.3053 11.2508 13.4353L10.2255 13.9479C10.9648 15.785 12.4311 17.2514 14.2682 17.9907L14.7809 16.9654C14.9109 16.7053 15.1953 16.5605 15.4821 16.6083L18.4198 17.0979C18.7392 17.1511 18.9732 17.4274 18.9732 17.7512V19.1769C18.9732 19.5427 18.6767 19.8392 18.311 19.8392H16.9864C12.2315 19.8392 8.37695 15.9846 8.37695 11.2297V9.9052C8.37695 9.53943 8.67346 9.24293 9.03922 9.24293Z" fill="white"/>
</g>
</g>
<defs>
<clipPath id="clip0_2_1101">
<rect width="26.4907" height="26.4907" fill="white" transform="translate(0.873047 0.854866)"/>
</clipPath>
</defs>
</svg>
