<svg width="28" height="28" viewBox="0 0 28 28" fill="none" xmlns="http://www.w3.org/2000/svg">
<g clip-path="url(#clip0_2_1106)">
<circle cx="13.8655" cy="14.1002" r="13.2454" fill="#ED4546"/>
<mask id="mask0_2_1106" style="mask-type:alpha" maskUnits="userSpaceOnUse" x="6" y="7" width="15" height="15">
<rect x="6.7998" y="7.91834" width="13.2454" height="13.2454" fill="white"/>
</mask>
<g mask="url(#mask0_2_1106)">
<path fill-rule="evenodd" clip-rule="evenodd" d="M10.5798 10.7614L13.4228 13.6044L16.2659 10.7614C16.5245 10.5027 16.9438 10.5027 17.2025 10.7614C17.4611 11.02 17.4611 11.4393 17.2025 11.698L14.3594 14.541L17.2025 17.384C17.4611 17.6427 17.4611 18.062 17.2025 18.3206C16.9438 18.5793 16.5245 18.5793 16.2659 18.3206L13.4228 15.4776L10.5798 18.3206C10.3211 18.5793 9.90182 18.5793 9.64319 18.3206C9.38456 18.062 9.38456 17.6427 9.64319 17.384L12.4862 14.541L9.64319 11.698C9.38456 11.4393 9.38456 11.02 9.64319 10.7614C9.90182 10.5027 10.3211 10.5027 10.5798 10.7614Z" fill="white"/>
</g>
</g>
<defs>
<clipPath id="clip0_2_1106">
<rect width="26.4907" height="26.4907" fill="white" transform="translate(0.620117 0.854866)"/>
</clipPath>
</defs>
</svg>
