<svg width="36" height="36" viewBox="0 0 36 36" fill="none" xmlns="http://www.w3.org/2000/svg">
<g clip-path="url(#clip0_2_1016)">
<circle cx="17.7202" cy="18.2349" r="17.4302" fill="#008EFF"/>
<path fill-rule="evenodd" clip-rule="evenodd" d="M14.9786 10.6606C13.92 11.0675 12.9546 11.6843 12.1406 12.4739C11.3265 13.2635 10.6806 14.2097 10.2417 15.2554C9.8028 16.3011 9.57995 17.4248 9.58658 18.5589C9.57197 19.7363 9.80845 20.9033 10.2803 21.9822C10.7521 23.061 11.4484 24.0269 12.3228 24.8156C12.3922 24.8774 12.4487 24.9523 12.4891 25.0361C12.5295 25.1198 12.5529 25.2107 12.558 25.3035V26.8546C12.5628 26.969 12.5953 27.0804 12.6528 27.1794C12.7102 27.2784 12.7908 27.3619 12.8877 27.4228C12.9846 27.4837 13.0949 27.5201 13.209 27.5289C13.3231 27.5377 13.4376 27.5186 13.5427 27.4733L15.2855 26.7152C15.4343 26.659 15.5985 26.659 15.7474 26.7152C16.5712 26.9376 17.4211 27.0489 18.2744 27.0463C20.5208 27.0498 22.6765 26.1608 24.2674 24.5748C25.8583 22.9888 26.754 20.8358 26.7575 18.5894C26.7609 16.343 25.8719 14.1873 24.2859 12.5964C22.6999 11.0055 20.5469 10.1098 18.3005 10.1064C17.1672 10.0652 16.0372 10.2537 14.9786 10.6606ZM20.9757 20.6677C20.8794 20.8206 20.7525 20.9518 20.6029 21.0532C20.4533 21.1545 20.2844 21.2238 20.1067 21.2565C19.929 21.2893 19.7464 21.2848 19.5706 21.2435C19.3947 21.2021 19.2293 21.1248 19.0848 21.0163L17.0457 19.4913C16.9552 19.4234 16.8452 19.3867 16.732 19.3867C16.6189 19.3867 16.5088 19.4234 16.4183 19.4913L13.6647 21.5827C13.588 21.6418 13.4929 21.6719 13.3961 21.6675C13.2994 21.6631 13.2073 21.6246 13.1363 21.5588C13.0652 21.493 13.0198 21.4041 13.0081 21.308C12.9963 21.2118 13.019 21.1147 13.0722 21.0337L15.6254 16.973C15.7217 16.8201 15.8486 16.6888 15.9982 16.5875C16.1478 16.4861 16.3167 16.4169 16.4944 16.3842C16.6721 16.3514 16.8546 16.3558 17.0305 16.3972C17.2064 16.4385 17.3718 16.5159 17.5163 16.6244L19.5554 18.1494C19.6459 18.2172 19.7559 18.2539 19.8691 18.2539C19.9822 18.2539 20.0923 18.2172 20.1828 18.1494L22.9364 16.058C23.0131 15.9989 23.1082 15.9688 23.205 15.9732C23.3017 15.9776 23.3938 16.0161 23.4648 16.0819C23.5359 16.1477 23.5813 16.2366 23.593 16.3327C23.6048 16.4288 23.5821 16.526 23.5289 16.607L20.9757 20.6677Z" fill="white"/>
</g>
<defs>
<clipPath id="clip0_2_1016">
<rect width="34.8603" height="34.8603" fill="white" transform="translate(0.290039 0.804749)"/>
</clipPath>
</defs>
</svg>
