<svg width="36" height="36" viewBox="0 0 36 36" fill="none" xmlns="http://www.w3.org/2000/svg">
<g clip-path="url(#clip0_2_1002)">
<circle cx="17.7202" cy="18.0277" r="17.4302" fill="#ED4546"/>
<g clip-path="url(#clip1_2_1002)">
<path d="M27.0997 11.474C26.7415 11.2053 26.3064 11.0587 25.8586 11.0557H10.5194C10.0716 11.0587 9.63657 11.2053 9.27832 11.474L18.189 17.1983L27.0997 11.474Z" fill="white"/>
<path d="M18.4441 18.6688H18.3883C18.3241 18.6975 18.256 18.7163 18.1861 18.7246C18.1283 18.7319 18.0697 18.7319 18.0118 18.7246H17.956L17.8375 18.6688L8.49453 12.6307C8.44989 12.7991 8.42647 12.9725 8.4248 13.1467V22.908C8.4248 23.4628 8.64518 23.9948 9.03745 24.3871C9.42973 24.7794 9.96176 24.9997 10.5165 24.9997H25.8557C26.4105 24.9997 26.9425 24.7794 27.3348 24.3871C27.7271 23.9948 27.9475 23.4628 27.9475 22.908V13.1467C27.9458 12.9725 27.9224 12.7991 27.8777 12.6307L18.5626 18.613L18.4441 18.6688Z" fill="white"/>
</g>
</g>
<defs>
<clipPath id="clip0_2_1002">
<rect width="34.8603" height="34.8603" fill="white" transform="translate(0.290039 0.597534)"/>
</clipPath>
<clipPath id="clip1_2_1002">
<rect width="19.5227" height="13.9441" fill="white" transform="translate(8.4248 11.0557)"/>
</clipPath>
</defs>
</svg>
