<svg width="36" height="36" viewBox="0 0 36 36" fill="none" xmlns="http://www.w3.org/2000/svg">
<g clip-path="url(#clip0_2_993)">
<circle cx="17.7202" cy="17.8205" r="17.4302" fill="#77F393"/>
<path d="M11.1714 26.945C10.9139 26.8591 10.6563 26.6874 10.4845 26.5156L10.3987 26.4298C10.3128 26.3439 10.2269 26.1722 10.2269 26.0863C10.2269 25.9146 10.3128 25.8287 10.4845 25.7429C11.1714 25.3994 11.7725 24.7984 12.1159 24.1115C12.2018 24.0256 12.2877 23.9398 12.2877 23.8539C9.8835 22.3942 8.42383 20.0759 8.42383 17.5859C8.42383 13.2928 12.8887 9.68652 18.2981 9.68652C23.7074 9.68652 28.1723 13.2928 28.1723 17.5859C28.1723 21.8791 23.7074 25.4853 18.2981 25.4853C17.7829 25.4853 17.1818 25.4853 16.6667 25.3994C15.3787 26.5157 13.8332 27.1167 12.3735 27.1167C11.9442 27.1167 11.6008 27.0308 11.1714 26.945Z" fill="white"/>
</g>
<defs>
<clipPath id="clip0_2_993">
<rect width="34.8603" height="34.8603" fill="white" transform="translate(0.290039 0.390381)"/>
</clipPath>
</defs>
</svg>
